<?xml version="1.0" encoding="UTF-8"?>
<svg id="Layer_2" data-name="Layer 2" xmlns="http://www.w3.org/2000/svg" viewBox="0 0 704 568">
  <defs>
    <style>
      .cls-1 {
        stroke-width: 6px;
      }

      .cls-1, .cls-2, .cls-3, .cls-4 {
        stroke-miterlimit: 10;
      }

      .cls-1, .cls-2, .cls-4 {
        fill: #222;
        stroke: #d1d1d1;
      }

      .cls-2 {
        stroke-width: 2px;
      }

      .cls-3 {
        fill: #d1d1d1;
        stroke: #222;
      }
    </style>
  </defs>
  <g id="Layer_1-2" data-name="Layer 1">
    <g>
      <rect class="cls-1" x="3" y="3" width="698" height="562" rx="34.77" ry="34.77"/>
      <g>
        <path class="cls-3" d="M248.64,437.51c20.94,1.19,42.11,1.51,63.07,1.74,28.1.31,61.22-1.44,93.14-1.98l-156.21.24Z"/>
        <path class="cls-3" d="M248.64,437.51c20.94,1.19,42.11,1.51,63.07,1.74,28.1.31,61.22-1.44,93.14-1.98l-156.21.24Z"/>
        <path class="cls-3" d="M248.64,437.51c20.94,1.19,42.11,1.51,63.07,1.74,28.1.31,61.22-1.44,93.14-1.98l-156.21.24Z"/>
        <path class="cls-3" d="M248.64,437.51c20.94,1.19,42.11,1.51,63.07,1.74,28.1.31,61.22-1.44,93.14-1.98l-156.21.24Z"/>
        <path class="cls-3" d="M248.64,437.51c20.94,1.19,42.11,1.51,63.07,1.74,28.1.31,61.22-1.44,93.14-1.98l-156.21.24Z"/>
        <path class="cls-3" d="M248.64,437.51c20.94,1.19,42.11,1.51,63.07,1.74,28.1.31,61.22-1.44,93.14-1.98l-156.21.24Z"/>
        <path class="cls-3" d="M311.72,439.26c28.1.31,61.22-1.44,93.14-1.98l-156.21.24c20.94,1.19,42.11,1.51,63.07,1.74Z"/>
        <path class="cls-3" d="M248.64,437.51c20.94,1.19,42.11,1.51,63.07,1.74,28.1.31,61.22-1.44,93.14-1.98l-156.21.24Z"/>
        <path class="cls-3" d="M248.64,437.51c20.94,1.19,42.11,1.51,63.07,1.74,28.1.31,61.22-1.44,93.14-1.98l-156.21.24Z"/>
        <path class="cls-3" d="M248.64,437.51c20.94,1.19,42.11,1.51,63.07,1.74,28.1.31,61.22-1.44,93.14-1.98l-156.21.24Z"/>
        <path class="cls-3" d="M248.64,437.51c20.94,1.19,42.11,1.51,63.07,1.74,28.1.31,61.22-1.44,93.14-1.98l-156.21.24Z"/>
        <path class="cls-3" d="M248.64,437.51c20.94,1.19,42.11,1.51,63.07,1.74,28.1.31,61.22-1.44,93.14-1.98l-156.21.24Z"/>
        <path class="cls-2" d="M665.77,504.77c-2.84-3.67-33.06-26.83-39.03-31.36-50.42-38.31-106.68-68.34-157.86-105.59-.17-.87-.06-1.71.32-2.39,0,0,0-.01.01-.02.04-.08.09-.15.14-.22,7.62-11.85,13.09-25.45,16.78-40.49,3.01-18.16,1.22-36.78,1.45-55.3v-13.14s.03-14.68.03-14.68l.06-1.39-.4-19.42-.04-2.01c-.06-4.47.07-8.95.47-9.85,1.32-2.98,11,1.58,12.55-3.48.61-2.01.36-33.5-1.05-34.5-1.18-.84-10.45,1.31-11.5-1.05-1.06-2.38.02-40.57-.7-48.09-3.43-36-18.96-50.01-51.92-61.68-3.28-1.16-13.03-3.19-19.96-4.84h-.03s-.56-.14-.56-.14c-2.76-.68-5-1.27-6.1-1.73,0,0-.01,0-.02,0-1.9-.49-3.87-.98-5.91-1.46-.82-.19-1.65-.38-2.5-.57-4.3-.97-8.91-1.9-13.81-2.8-7.47-.75-17.72-2.28-20.1-2.39-17.01-.77-34.12-.23-51,1.81-2.79.34-5.56.72-8.34,1.14-1.61.26-3.23.56-4.87.89-.1.01-.19.03-.29.06-.46.1-.92.19-1.38.29-.4.08-.79.17-1.2.26-.79.17-1.58.35-2.38.54-.47.11-.96.23-1.44.34-.11.03-.22.05-.33.08-.17.04-.33.08-.49.13-1.23.3-2.46.62-3.7.95-.64.17-1.28.35-1.92.52-.57.16-1.14.32-1.71.49-.81.23-1.61.47-2.41.72-.77.24-1.58.47-2.43.72h-.05c-8.24,2.42-20.02,5.43-22.69,6.41-25.67,9.47-44.64,23.76-48.44,52.62-1.31,9.98,1,53.32-.7,57.15-.77,1.73-6.67.98-8.36,1.05-1.36.06-2.27-.22-3.48.7-.55,8.85.54,18.81.12,27.68l-.12,4.73c-.55,7.63,11.25,2.65,12.55,5.58.22.49.16,1.19.18,1.71.15,3.7-.14,7.4-.21,11.1-.07,3.78-.12,7.57-.15,11.35-.04,7.57,0,15.14.15,22.7,0,1.82.06,3.64.1,5.45.04,1.77-.08,3.54-.08,5.32.87,18.73-1.79,37.78,1.55,56.1,0,.06.01.11.03.17.84,3.96,1.85,7.92,3.02,11.88.26.31.41.72.37,1.23,1.36,4.47,2.93,8.94,4.72,13.41l7.04,14.28c-49.32,37.02-97.97,75.01-147.41,111.86-7.26,5.42-40,25.91-42.86,31.01-1.21,2.15-3,8.56.35,9.41,2.23.56,31.17,1.81,32.76,1.39.39-.1,4.82-4.66,5.92-5.58,24.05-19.89,46.37-42.35,70.04-62.73,25.01-21.51,60.57-55.53,86.42-73.18,1.34-.91,3.16-2.04,4.88-2.09-26.67,24.87-53.53,49.71-80.85,73.88-16.61,14.7-67.22,52.23-77.01,66.91-.38.57-1.87,3.05-1.05,3.48,4.4.31,8.7-.53,12.55-2.79,46.21-42.58,90.62-87.64,138-128.94,7.51-6.55,14.98-13.12,23.7-18.12l-154.72,148.45,1.39,2.09,154.03-147.75c2.67,1.16-8.66,11.77-9.41,12.89-1.55,2.33.43,3.79,0,4.88-.43,1.08-15.01,11.55-18.12,14.64-37.34,36.97-72.3,76.39-110.12,112.91l-.35,2.44h64.12c2.35-1.65,13.61-12.27,4.88-11.15-2.99.38-6.15,8.27-9.06,9.06-6.66,1.81-26.07-.54-33.8-1.05,7.49-1.83,23.8.85,30.32-1.05,1.5-.43,13.28-14.48,7.67-14.64-.83,0-7.27,10.52-11.15,11.85-.88.3-17.55,1.86-18.47,1.74-.82-.1-2.86.57-1.39-1.39.6-.81,13.27-2.82,16.38-4.53,4.2-2.31,6.47-7.77,10.8-10.11.2-1.82-7.14-3.42-8.71-3.14-.14-5,8.89-3.59,12.55-3.48,36.8,1.05,73.81,2.65,110.82,2.79,91.73.34,183.6-1.05,275.3-1.39-.97,4.64-1.33,13.53,5.92,12.2-2.33-1.37-3.97-3.4-4.18-6.27,11.45.78,5.67,4.2,6.27,6.97.78,3.61,2.95.24,3.14.35,1.23.73,1.48,3.47,4.18,3.48,4.66.03,0-1.83.35-3.14.93-3.58,7.36,4.11,9.76,3.48-9.67,2.23-23.64,3.99-29.27-6.27-2.17-3.95.08-4.61,0-4.88-.65-2.32-6.27.29-6.27,1.39,0,.95,11.79,12.5,13.59,12.89,1.35.3,22.73-.01,23.7-.7,1.13-.8-.95-9.16,2.09-8.36l.7,16.03c7.55-.89,15.73,3.34,21.95-2.44-19.84-19.38-39.88-38.78-60.98-56.8-33.65-28.74-77.31-56.52-108.72-86.42-.93-.89-3.51-2.66-2.79-4.18,30.24,20.29,59.32,42.75,87.82,65.51,33.48,26.75,65.88,54.89,98.27,82.94l3.14-.35c-29.03-25.07-58.26-50.17-88.16-74.23-22.48-18.09-47.93-35.03-69.7-53.67-.59-.5-11.41-9.56-7.67-9.06,62.41,42.1,123.21,87.23,181.21,135.21,1.49-.14,10.7-.38,11.15-.7,1.37-.97-.77-4.73-.35-5.23.86-1.04,11.46,1.64,4.53-7.32ZM496.41,174.41c2.13,1.12.92,27.13,0,31.36-3.76-6.36,1.87-23.84-.35-28.92-1.12-2.57-7.28.8-7.32-2.44h7.67ZM487.7,204.73l.35-21.95c2.22,1.62,2.55,22.85,1.39,23-.97.13-1.93.24-1.74-1.05ZM210.66,204.38c-1.6,1.32-1.55-.91-1.74-1.74-1.14-5.05.57-15,.35-20.56,2.61,1.37,2.27,21.58,1.39,22.3ZM211.36,175.81l-8.71,1.05-1.05,28.23-.35-29.62c1.78.22,8.58-1.18,9.41-1.05.13.02,1.4,1.04.7,1.39ZM164.66,489.44c2.74-1.11,1.07,6.29.7,6.97-.45,0-1.02-6.84-.7-6.97ZM160.48,493.62c1.33-1.29.73,5.25-.7,4.88l.7-4.88ZM154.9,503.37c-5.76,3.14-5.44-3.85-2.09-4.88,4.95-1.53,5.66,2.93,2.09,4.88ZM154.21,484.56c6.94.95-11.61,15.14-13.24,14.64.73-2.28,12.27-14.77,13.24-14.64ZM144.45,516.62c-.84-4.4-.38-8.96.7-13.24,1.19,3.75.49,9.53-.7,13.24ZM139.22,500.94c3.98-.29,11.51-7.44,14.29-8.01.53-.11,1.37-.16,1.74.35.56,1.02-13.07,9.51-16.03,7.67ZM171.63,499.19c.27-.13,1.76,1.88.7,2.09-1.41.28-1.37-1.76-.7-2.09ZM150.02,505.47c6.75,2.83,11.31-8.26,16.03-7.67,11.61,1.46-17.58,23.75-16.03,7.67ZM598.86,507.56c5.3,2.86,5.11,7.12,4.18,12.55-9.32.72-2.56-6.73-2.44-7.32.13-.68-4.24-3.25-1.74-5.23ZM317.64,54.19c.81-1.25,4.54-2.22,5.92-2.44,5.03-.8,56.19-1.04,58.54.7,1.85,7.01,1.11,15.39,1.05,22.65-.07,8.12,1.58,28.21-8.01,30.32-3.71.82-46.85.78-50.88,0-3.8-.74-7.32-4.93-8.01-8.71-.79-4.31-.2-40.06,1.39-42.51ZM213.79,318.33l.7-101.75c.22-32.06-6.15-108.06,13.24-131.03,12.8-15.16,60.43-31.82,79.8-32.41,1.06-.03,4.79-.26,5.23.35,2.07,12.85-6.66,46.01,5.92,53.32,6.59,3.83,55.04,4.31,61.33.7,9.19-5.27,5.49-16.9,7.32-25.44,1.46-2.25,5.3,3.36,7.32,3.83,18,4.22,16.65-27.21-2.79-18.82-2.43,1.05-3,5.39-5.23,5.92l1.05-19.86c27.68,6.36,71.48,12.71,87.47,39.38,8.47,14.13,8.61,37.92,9.06,54.36,1.53,56.5-2.17,113.48,0,170.06l-2.44,3.14-267.98-1.74ZM396.74,80.33c-6.14-1.31-3.6-8.27-.7-9.06,7.51-2.06,10.77,11.21.7,9.06ZM399.18,82.07c-1.03,1.27-5.19-.35-3.83-1.05l3.83,1.05ZM234.35,364.68c-6.23-3.14-13.42-23.22-14.98-30.32,9.35.05,18.92-.95,28.23-1.05,19.17-.18,38.66.48,57.85.7-1.4,13.89,2.73,32.2-15.33,33.45-7.37.52-51.16-.47-55.76-2.79ZM319.03,339.24c-3.62,1.3-8.03,2.69-9.06,6.97l9.76.7-9.76,4.18,9.76.7c-2.56,3.12-7.3,1.16-10.8,2.44-3.64-5.17,4.03-17.49,9.06-16.73,1.41.22,1.11.46,1.05,1.74ZM319.03,344.12c-2.06,1.41-3.7-.66-1.74-1.05.92-.18,1.95-.2,1.74,1.05ZM315.2,357.71c.19,0,3.3-1.45,3.48-1.39,6.79,2.12-10.99,6.41-12.2,3.14-1.25-3.39,6.54-1.76,8.71-1.74ZM321.82,361.55l.35-26.83c1.97,2.73,1.46,34.16-.7,33.45-2.16-5.14-12.05-2.5-16.73-1.39l-.7-1.39c1.13-3.52,14.23-1.92,17.77-3.83ZM323.91,366.42c1.08-1.91,3.95-.19,4.88-2.09,1.87-3.85-2.08-23.24,1.05-28.92l1.05,37.98-27.53-4.53c-1.05-1.76.39-1.21,1.39-1.39,8.14-1.46,15.93,2.42,24.04,1.74.41-4.73-2.01-1.64-4.88-2.79ZM342.38,380.71c.73.27,2.23,2.56,3.14,3.14-7,.45-14.25-1.48-21.26-1.74-15.14-.56-31.86,1.23-46.7,0-2.26-.19-9.12-.45-9.76-2.79,5.81.61,11.69-.52,17.42-.7,8.68-.26,51.47-.03,57.15,2.09ZM336.11,372.35c.86-.59.92,2.67,0,2.09-.53-.33-.6-1.68,0-2.09ZM338.9,337.5c.16-.13,2.31,2.63,2.44,3.14.49,2.04.94,32.07-.35,33.11-1.03.24-2.29-1.88-2.44-2.44-.47-1.81-.99-32.77.35-33.8ZM348.65,335.41c.81.57,2.24,1.42,2.44,2.44.31,1.53.24,27.61,0,30.67-.07.93-2.65,4.89-1.74,5.92,14.62,3.36,3.32-29.83,8.36-38.33l2.44,3.14c-3.35,7.97,2.23,29.5,0,35.54-1.3,3.52-12.28,2.36-15.33,1.39-.13-1.7,2.13-.54,2.79-2.09,2.22-5.17-2.09-36.19,1.05-38.68ZM390.12,367.47l-.7-1.39c-4.24-.61-15,6.31-10.8-1.39,6.35,1.25,13.1-4.07,15.68,3.83-.24,1.44-25.35,8.68-27.88,4.18l1.05-36.59,1.05,35.89c2.26,1.44,19.74-2.89,21.61-4.53ZM375.84,338.89c1.67,3.31,1.91,30.8-.7,30.67-.17-9.51.47-20.46.7-30.67ZM380.37,346.91l8.36,2.79c-5.25.4-12.1,1.25-9.41-5.92,9.46-.36,12.66,1.28,1.05,3.14ZM386.29,340.29l1.05.35-.35,1.05-.35-.35-.35-1.05ZM390.12,358.06c-.89,1.16-16.06-1.55-10.8-2.44,1.15-.2,12.65.05,10.8,2.44ZM391.52,361.55c-2.31,1.13-12.13,1.92-12.89-.35-.68-.35.47-1.32.7-1.39.94-.32,13.88-.55,12.2,1.74ZM379.32,352.14c.47-.09,8.64.71,9.41,1.74-.69.71-14.66-.72-9.41-1.74ZM428.8,378.62c2.69-.02,13.22-1.28,9.06,2.79l-81.89,1.74c2.7-1.97,6.2-2.74,9.41-3.14,18.32-2.27,44.3-1.22,63.42-1.39ZM441,402.67c-57.32,2.01-114.87,1.55-172.15-.7,14.24.06,28.66-.97,42.86-1.05,43.09-.22,86.21,1.53,129.28,1.74ZM418,389.42l.35-1.05,1.05.35-1.05,1.05-.35-.35ZM267.46,395.7l-1.05,1.05-.35-.35.35-1.05,1.05.35ZM255.96,393.26c1.62-.07,6.48,2.5,8.71,2.44-3.07,4.03-7.87-2.95-12.2,1.05-1.67-2.13,2.2-3.43,3.48-3.48ZM260.84,401.62c-1,.01-1.62-3.46-1.39-3.48,3.88-.39,4.68,3.44,1.39,3.48ZM258.4,398.48c-5.17,8.05-7.62,11.07-17.42,6.27,1.52-1.16,4.29,1.14,6.62.35,1.52-.52,4.85-7.44,5.58-7.67.25-.08,4.85.22,5.23,1.05ZM248.29,395.35c5.07-.03-.45,10.25-3.48,9.06-4.24-1.66,2.31-4.22,2.44-4.53.12-.27-2.45-4.5,1.05-4.53ZM244.11,392.56c3.07.08-2.21,6.98-3.48,6.27-1.67-1.48,3.1-6.28,3.48-6.27ZM242.37,417.3l-1.74-1.74c9.25-1.95,4.58,8.31-1.74,3.83l3.48-2.09ZM236.45,414.86l-1.39,4.18c-1.84-1.12.13-2.99,1.39-4.18ZM232.26,415.56c1.92-.24.93,2.67,0,2.79-1.16.15-.66-2.7,0-2.79ZM233.31,422.18c-1.05,2.16-2.84,2.81-3.48,5.23,1.56-.68,2.37-3.21,4.18-2.44l-3.83,4.53c-1.41.29-.53-1.41-.35-2.09-4.66,2.03-5.48,1.31-8.36-3.14,6.92,3.81,7.39-6.7,11.85-2.09ZM221.11,431.59c-1.2.54-1.48-1.74-.7-2.09,1.2-.54,1.48,1.74.7,2.09ZM227.73,420.79c-6.67,6.14-5.56-4.04.35-6.62l-.35,6.62ZM225.99,409.29c3.41,2.6-6.14,8.57-7.67,9.76-2.76.21,7.14-10.15,7.67-9.76ZM213.45,435.07c1.29-.79,1.46,3.02.7,3.48-1.29.79-1.46-3.02-.7-3.48ZM205.43,444.48l3.83-5.23c4.5-.74,4.54,4.25,1.39,6.27-1.54.99-5.75-.07-5.92,1.05-.06.38,3.75,4.38.35,6.62-1.97-6.57-3.05-13.79,2.09-18.12,3.38-.45-2.81,6.34-1.74,9.41ZM206.48,428.8c3.26,2.49-5.09,9.69-7.67,10.45l-.35-1.74c1.34-.43,7.55-9.07,8.01-8.71ZM199.51,457.38l.35,1.05-1.05.35-.35-.35,1.05-1.05ZM193.93,458.77c2.34-.5-.38,3.67-.7,3.48l.7-3.48ZM185.22,464c1.09,3.19,5.15-2.42,5.58.7-.85,4.42-9.73,3.69-9.76.7,0-.54,6.05-8.77,6.62-8.71,3.95.45-2.94,5.85-2.44,7.32ZM183.83,468.88c-.13.71-4,.7-2.44-1.05l2.44,1.05ZM186.27,449.01c7.09.41-10.53,19.65-13.94,18.12-2.16-1.11,13.56-15.59,13.94-18.12ZM218.32,492.92c-5.17-.14-45.26-1.05-46.35-3.83-.38-.98.29-1.87,1.05-2.44l342.9,2.09,1.74,3.83c-99.65-1.38-199.7,3.02-299.34.35ZM574.47,498.5c-7.78,1.09-6.16-5.65-2.79-6.27,3.12-.57,5.62,3.85,2.79,6.27ZM566.8,479.68c2.49-.39,11.19,10.71,9.06,11.85l-7.32-3.14,2.79-2.79c-.11-.95-7.05-4.47-4.53-5.92ZM546.59,468.53c1.2-.54,1.48,1.74.7,2.09-1.2.54-1.48-1.74-.7-2.09ZM537.53,455.29c1.58-.24,9.95,4.66,8.71,6.62-3.58,2.43-12.3-6.07-8.71-6.62ZM543.1,469.22c-4.06,1.18-3.51-4.17-2.09-4.88,2.91-1.46,5.55,3.88,2.09,4.88ZM528.47,451.8c3.7.53.3,6.31-3.83,2.44.86-.18,3.53-2.48,3.83-2.44ZM531.95,451.8c1.51,1.23,4.5,5.41,2.79,6.97l-17.08-.35c-1.09-4.19,17.64,1.83,14.29-6.62ZM492.92,417.65c6.3-.31,4.58,6.38-1.39,3.48-3.47,7.37,6.21.86,6.62,3.83.24,1.71-4.48,2.48-5.92,1.74l-.7,1.39c.41.49,9.88,4.93,10.45,4.88,1.25-.13,2.08-2.86,2.79-2.79,1.14.11,1.75,3.98,2.09,4.18,1.24.72,9.25-2.16,11.5,3.83.22,2.79-5.72.97-4.88,5.58l5.23-1.74c3.63,5.14-5.25,3.46-5.23,5.23,2.52-.57,11.53,6.16,8.01,8.01-.39.2-8-2.54-8.36-2.79-2.02-1.38-3.32-7.22-6.97-6.27-4.22,1.1,9.53,11.07,9.76,11.85l-.7,1.39c-6.79-.28-9.16-4.38-13.59-8.71-4.68-1.8,4.54,10.56,5.23,10.8,4.11,1.44,29.61-1.25,31.36,0,.72,10.53.51,9.83-9.41,11.5,6.37,9.48,9.6,15.91,21.61,8.36l-10.8-8.71c4.74.86,7.83,5.34,12.55,6.27,2.74.54,6.7-2.15,8.71.35,1.31,1.63,1.09,6.5-1.05,7.32-1.17.45-23.88,1.05-25.09.7-1.04-.3-14.45-17.23-14.29-10.8.02.91,11.33,13.3,12.2,13.59,1.78.59,28.67-.65,29.97-1.39,1.69-.96,1.28-3.76,2.79-4.88.86.04,1.48,5.84,1.05,6.62-.99,1.8-37.6,3.37-40.77,2.44-4.61-1.35-8.97-17.08-13.94-6.27l-301.78-1.39c-3.23-1.29,4.61-8.76,2.79-11.85-2.09-1.57-7.83,8.93-9.76,9.76-5.69,2.43-17.33-.86-23.7,1.39,5.09-5.63,16.13-.7,22.3-4.18,1.28-.72,8.11-10.64,8.71-12.2-6.17-5.44-7.78,8.08-12.89,10.11-3.79,1.51-7.92-.79-8.36-.7-2.52.54-6.7,5.04-10.8,3.83l.35-3.83,2.09,2.09c.52-4.47,2.34-.77,4.53-3.14-6.14-8.29,1.21-5.39,5.92-8.71,1.92-1.35,2.05-3.82,3.48-4.88,6.59-4.85,10.78,1.23,16.73,2.09,6.77.98,16.6,1.07,23.7,1.39,91.75,4.15,186.09-2.5,278.08,1.39,7.76-2.28,15.68-2.22,23.7-3.48-.22-2.37-8.38-1.5-10.45-1.39-5.03.25-20.11,3.77-23.7,2.79-3.93-1.08-7.74-13.87-13.94-6.27-84.63.74-169.74-1.23-254.04-.35,12.32,1,24.93,1.53,37.29,1.74,67.62,1.15,138.43-3.31,205.6,0,1.14.06,22.92.98,16.73,4.18-74.78-.7-149.66.83-224.42-.7-22.18-.45-44.7-.48-66.56-3.83,5.86-4.43,25.77,4.17,27.53-6.62-.7-6.21-5.84,2.95-7.67,3.48-2.06.61-23.35-1.01-24.04-2.44-.73-1.5,1.09-7.32,1.05-9.41l.7,9.06c4.47-4.08,2.53-.22,3.48,0,6.59,1.55,23.92,2.76,20.21-7.67-5.19,8.11-9.04,6.2-17.77,5.23l9.41-10.8c16.59,1.82,33.48,3.11,50.18,3.48,68.89,1.54,145.42,3.03,213.96.7,9.95-.34,19.97-2.33,29.97-1.39,2.27-2.59.63-5.95,5.23-5.92l-5.92-2.44v3.48c-5.23-2.6-16.58.82-20.91,0-2.12-.4-6.56-7.67-7.67-7.67-5.39,0,5.47,8.37,4.88,10.45-4.67,1-6.08-2.04-9.06-4.88l-41.45.06c12.41.23,24.27.83,35.18,2.03,2.4.26,8.79.33,6.97,3.48-50.91-.87-101.76,1.11-152.63.7-27.81-.22-61.42,1.18-88.51-1.39-2.13-.2-19.53-2.88-19.86-3.83,7.96-9.19,31.02,9.15,29.62-10.11-5.35,11.11-14.27,5.7-24.04,3.83,2.98-1.05,6.23-.13,9.41-1.74.34-.17,5.22-4.86,5.23-5.23.04-1.51-3.97-1.66-1.05-3.83,10.34,1.56,20.9,3.07,31.36,3.48,73.65,2.96,147.96-2.38,221.63.7,2.94-1.39-2.87-7.32,4.18-7.67ZM542.41,475.5c5.83,10.38-5.11,7.51-8.71.35l.35-1.74c2.03-.08,5.66,7.14,8.36,1.39ZM490.83,441.35l12.62.31c.62-.03,1.18-.03,1.67.04l-1.67-.04c-4.17.22-10.81,2.23-12.62-.31ZM461.56,422.53c2.63.18,5.44-.41,8.01.35,0,.4-7.41.94-8.01-.35ZM481.08,410.68c3.96.06.48,5.03-1.74,2.44-.8-.93,1.38-2.45,1.74-2.44ZM460.86,395.35c.61.32,2.38,3.19,1.39,3.48-1.16.39-1.95-3.4-1.39-3.48ZM473.76,401.97c-9.44,1.28-19.65,3.99-24.74-5.92,3.53-1.32,7.34,5.99,8.36,6.27,4.15,1.12,11.83-5.84,16.38-.35ZM458.08,399.53c-2.28-.79-1.94-3.26-.7-4.88l.7,4.88ZM451.11,391.86c.92-.16,5.73-.68,5.58,1.39l-10.8,1.74c-.34-.96,4.59-3.02,5.23-3.14ZM446.92,396.04c.38,0,4.65,5.09,4.18,6.27-4.24.84-7.44-6.3-4.18-6.27ZM467.83,405.8c1.02.15,2.56-1.59,3.48-1.39,1.44.31,8.11,20.12-1.39,4.88-1.99,1.02-.57,5.49.7,6.27,2.89,1.77,19.61-4.07,17.77,1.05-.34.95-16.13,2.13-17.77,1.74-3.88-.91-6.36-8.72-11.15-7.67,2.91,2.29,3.41,7,6.97,8.36,5.35,2.05,18.01-2.04,18.12,3.48-5.04-2.15-17.41.82-21.61-1.39-2.2-1.16-3.51-10.34-6.97-2.09l-198.98-1.74,200.37,3.14v2.79l-204.21-1.39c-5.61-1.57-1.07-.79-1.39-4.88l-4.18,4.18,1.05-6.62c-2.56-2.31-7.85.82-7.67-3.48.09-.45,2.63-2.29,3.14-2.44,2.56-.75,11.85.94,12.55.7.38-.13,3.62-5.95,4.88-6.27,1.3-.33,21.38,3.85,25.09,4.18,19.48,1.77,34.9,2.83,54.36,6.27,22.29,3.94,58.82.38,82.24-3.48,21.92-3.62,21.28-7.44,44.6-4.18ZM463.65,366.08l-62.73,1.39c-8.2-8.2-7.69-22.42-6.97-33.45h82.24l-.7-4.18c-44.37-.17-88.76.11-133.12-.7-7.87-.15-30.34-3.62-36.24-2.09-.52.14-.09,2.4-1.39,2.79l-86.42.7,1.39-3.48c26.48-.2,52.98.26,79.45,0,1.14-.01,5.84-1.39,6.97-1.39,58.01-.47,116.18,2.98,174.24.7,3.24,2.38-10.27,37.22-16.73,39.73Z"/>
        <path class="cls-3" d="M323.56,57.33c2.44-.95,50.23-.94,52.27.7.99,7.75,1.96,18.46,1.74,26.14-.11,4.09.06,15.46-3.83,17.08-2.75,1.14-47.3,1.17-49.48,0-.61-.32-2.29-2.56-2.44-3.14-.52-2.07-.71-37.21,0-39.03.06-.16,1.58-1.68,1.74-1.74ZM328.44,59.42c-5.61,1.48-5.93,32.69-4.53,37.29.1.34,1.37,2.29,1.74,2.44,12.19-3.04,35.38,2.13,46-.7.58-.16,2.81-1.83,3.14-2.44.78-1.48.52-31.86,0-33.45-1.15-3.53-16.24-3.02-20.21-2.09,23.41,7.49,15.05,39.78-10.11,36.59-17.24-2.18-19.14-29.8-3.83-36.59-.32-1.07-10.77-1.42-12.2-1.05ZM342.73,65.69c-11.16.15-7.48,22.83-.35,25.79,8.39,3.48,20.59-1.38,19.86-11.5-.52-.97-2.39.68-2.79,1.05l-2.79-2.79c1.58-2.87,1.98-6.18-.7-8.36v-.7c-.03-.23.04-.47,0-.7-.2-1.3-.84-1.63,0-2.79,3.8,2.17,5.1,3.83,6.97,7.67.22.45-.38,1.63.35,2.09.56-.08.32-1.46.35-2.09.27-5.3-4.06-8.27-8.71-9.76-.72-.23-3.63-1.41-3.14.7-5.23-1.36-4.11-2.81-9.06,1.39Z"/>
        <path class="cls-3" d="M351.79,64.3c1.73.45,2.43.39,4.18,1.39-.84,1.16-.2,1.49,0,2.79l-2.79.35,2.79.35v.7c-13.62-1.43-16.87,5.08-6.62,13.94.67.08,6.92-4.86,7.32-5.58l2.79,2.79c-.16.14-.84,2.43-2.44,3.48-14.91,9.82-25.08-9.65-14.29-18.82,4.95-4.2,3.83-2.75,9.06-1.39Z"/>
        <path class="cls-3" d="M295.69,66.39c12.61-3.09,18.65,13.73,9.06,18.82-14.33,7.6-21.28-15.82-9.06-18.82ZM297.78,69.87c-8.71,1.05-5.15,17.01,2.79,11.85,5.11-3.32,4.05-12.67-2.79-11.85Z"/>
        <path class="cls-3" d="M452.5,87.3c.88.42.25,2.42-.7,2.79-5.72,2.24-32.21-1.43-40.07-.35l40.77-2.44Z"/>
        <path class="cls-4" d="M244.11,117.26c7.19-.92,45.19-.66,50.18,2.09,2.06,1.13,5.28,5.65,5.92,8.01,4.14,15.28.78,73.03.7,92.69-.13,31.87-.49,63.98-1.74,95.83l-1.05-187.13c-.45-1.47-3.9-5.96-5.23-6.62-4.37-2.2-50.53-2.18-55.06,0-5.45,2.62-6.18,11.88-6.62,17.08-1.76,20.67,2.5,43.17,0,64.12,1.43,6.66,11.72,5.59,17.08,5.92,13.11.83,27.02-.54,40.07-1.74l-52.97-2.09c-2.38-3.06-.97-73.4,1.39-77.36.46-.77,3.05-2.93,3.83-3.14,11.38-2.95,36.1,2.13,48.79.7l1.74,2.44c-1.59,10.72,1.53,77.01-2.09,81.54-.5.63-1.21,1.13-1.74,1.74l-52.27-.7-5.92-4.53c1.97-22.84-2.63-50.17,0-72.48,1.16-9.82,5.04-15.11,14.98-16.38Z"/>
        <path class="cls-3" d="M285.93,129.81c-.13,0-2.64,1.2-1.39,2.09l2.44-1.74c-.14-.46-.62-.37-1.05-.35Z"/>
        <path class="cls-3" d="M282.44,132.6c-15.01,15.17-30.13,30.39-43.91,46.7l23.35-23.35,20.56-23.35Z"/>
        <path class="cls-3" d="M288.02,147.23c-16.18,16.55-32.77,32.9-47.39,50.88,16.38-16.26,33.11-32.71,47.39-50.88Z"/>
        <path class="cls-3" d="M268.85,200.9c-.86,1.05-3.18,1.81-3.14,3.48,2.06.18,3.4-3.08,3.83-3.48,2.49-2.31,4.69-4.86,7.32-6.97l-.7-1.39c-1.74-.08-6.02,6.77-7.32,8.36Z"/>
        <path class="cls-3" d="M246.9,200.9c-.16,0-2.5,1.97-1.39,2.79,1.31-.42,3.93-2.88,1.39-2.79Z"/>
        <path class="cls-3" d="M414.17,117.26c7.78-.99,43.77-.62,49.48,2.79,4.26,2.55,6.07,8.93,6.62,13.59.81,6.84.69,69.79-.7,73.18-.72,1.76-4.7,4.17-6.62,4.53-4.67.88-53.96.63-55.41-1.74-1.29-2.11.72-1.3,1.39-1.39,14.43-2.04,41.78,3.81,54.71.35,4.01-1.07,4.13-5.96,4.53-9.41,1.06-9.12,1.03-60.19-.7-68.3-.48-2.28-3.86-7.67-5.92-8.71-4.39-2.21-49.19-2.19-53.67,0-3.22,1.58-6.79,8.71-7.32,12.2v182.6l-99.32.35,97.22-2.44v-183.3c1.6-8.51,7.11-13.19,15.68-14.29Z"/>
        <path class="cls-3" d="M322.17,119.36c7.27-1.37,54.2-.5,59.24,2.79,1.92,1.26,4.8,5.1,5.23,7.32,1.08,5.56,1.25,81.62,0,85.72-.1.34-1.37,2.29-1.74,2.44l-69.7,1.39-2.44-2.44-.7-87.12c1.28-4.44,5.3-9.2,10.11-10.11ZM322.87,124.23c-.9.18-4.72,2.35-5.23,3.14-2.72,28.54-1.45,58.24-.7,87.12l65.16.35.35-86.07c-.1-.25-3.58-3.73-3.83-3.83-2.58-1.08-51.69-1.53-55.76-.7Z"/>
        <path class="cls-4" d="M449.71,124.93c6.17.18,10.93-.47,14.29,5.92v74.57l-55.41,1.05-.35-79.1c.55-.35,1.32-1.6,1.74-1.74,1.89-.61,35.18-.83,39.73-.7ZM462.95,148.63c-17.27,17.78-35.43,34.83-51.57,53.67l27.18-26.48,24.39-27.18ZM461.56,163.96c-12.75,13.65-27.48,25.66-39.03,40.42l20.91-20.21,18.12-20.21ZM426.71,177.9l-15.68,13.59c5.63-3.31,11.87-8.31,15.68-13.59Z"/>
        <path class="cls-4" d="M370.96,129.81c4.18.15,8.18-.26,9.41,4.53l-1.39,75.97-57.5.35c-1.3-22.36-.74-44.84-1.05-67.26-.04-2.93-3.46-11.17,1.74-12.89,2.32-.77,43.3-.89,48.79-.7ZM321.82,177.9c.06.92.69.65.7.7.11,1.61-.39,8.6.35,9.06,5.57-6.62,11.19-13.17,17.08-19.51-.46,4.63-22.06,22.71-17.08,25.79l24.04-30.32c.33-.04,9.56-10.75,9.06-6.97-8.08,9.91-28.03,27-32.06,38.68-1.46,4.22-2.1,7.97-1.05,13.24,3.05-2.8,4.15-7.32,6.62-10.45,10.46-13.27,26.23-26.81,38.33-39.03-10.98,14.73-32.14,29.94-40.42,44.26-.26.46-3.01,5.05-1.05,5.23l33.11-35.89-32.06,35.54,2.44.35,37.64-40.42-36.59,40.77c2.04,2.67,7.61-4,9.76-5.92-1.12,1.76-6.82,7.69-1.74,6.27,1.15-.32,13.82-14.85,16.38-17.42-1.9,2.29-14.16,15.33-13.94,16.38.61,2.85,3.94-.74,4.88-1.74-.51.98-.94,2.78,1.05,2.79l3.14-6.62c-.77.66-3.87,3.24-4.18,3.83,2.55-2.71,4.17-6.28,7.67-9.76-2.96,5.45-.8,4.77-1.39,8.01-.13.69-3.88,3.2-1.74,4.53,3.86-.74,23.6-29.02,25.09-27.88.61.46.54,2.76,0,3.48l-21.95,24.04,7.32-6.62c-4.47,7.29-5.85,11.07,2.09,2.79l-1.74,3.83c.25.47,1.35.5,1.74.35.98-.38,10.17-15.01,12.55-16.73-.54,5.63,3.72,14.28-3.14,16.38,1.73.9,4.88.41,5.58-1.39.52-1.35.39-28.73-1.05-28.92l-24.04,24.74,24.39-26.48.35-5.92c-5.77,10.63-15.73,17.52-24.04,25.79,4.56-8.4,22.02-19.45,23.7-28.23.55-2.86.47-32.43-1.05-33.11-8.69,1.02-48.44-3.27-53.67,0-1.04.65-.91,1.74-1.74,2.44,1.82,13.26-.11,26.83.7,40.07ZM373.4,201.6l-3.14,7.67c1.12.56,5.68-6.65,4.53-8.01l-1.39.35c.39-.67,2.84-5.05,1.74-5.58-1.85,1.17-9.96,11.94-9.41,12.89,1.08,1.86,7.18-6.48,7.67-7.32Z"/>
        <path class="cls-3" d="M330.19,189.75c7.66-13.73,23.17-26.86,34.5-37.64-11.97,11.9-22.63,25.77-34.5,37.64Z"/>
        <path class="cls-3" d="M348.65,152.81l-11.5,14.29-13.59,14.29c7.99-9.83,16.74-19.05,25.09-28.57Z"/>
        <path class="cls-3" d="M328.79,197.41c.14-.62.49-2.43.7-2.79,8.04-14.21,28.07-29.64,39.73-41.47l-40.42,44.26Z"/>
        <path class="cls-3" d="M367.82,159.08c1.12-1.5,2.33-4.92,4.53-5.58-.11,2.7-2.97,4-4.53,5.58Z"/>
        <path class="cls-3" d="M375.84,153.51c2.49,1.09-13.42,17.49-15.33,18.82l15.33-18.82Z"/>
        <path class="cls-3" d="M339.94,168.14l12.89-13.94c-3.23,5.11-8.73,9.44-12.89,13.94Z"/>
        <path class="cls-3" d="M334.72,157.69c2.08.26.79.93.35,1.74-1.98,3.61-9.18,9.47-11.5,13.59-1.89-.61,10.1-14.28,11.15-15.33Z"/>
        <path class="cls-3" d="M322.52,178.6s-.64.23-.7-.7l18.47-19.51-17.77,20.21Z"/>
        <path class="cls-3" d="M375.14,159.78c4.28-.95-5.76,7.86-6.27,8.36-.13-1.54,5.76-8.25,6.27-8.36Z"/>
        <path class="cls-3" d="M326.35,161.17c1.59.37-.06,5-1.39,4.88-.97-.34,1.5-4.1,1.39-4.88Z"/>
        <path class="cls-3" d="M375.84,163.96c.52,3.74-4.52,4.86-6.27,7.67l6.27-7.67Z"/>
        <path class="cls-3" d="M375.14,168.84c-1.63,4.86-6.45,8.83-9.76,12.55,1.81-4.74,6.39-8.88,9.76-12.55Z"/>
        <path class="cls-3" d="M344.12,199.5l-.7-.7c7.22-9.52,16.69-17.7,25.09-26.14-7.77,9.07-15.85,18.52-24.39,26.83Z"/>
        <path class="cls-3" d="M355.28,191.84c2.55-3.08,4.62-6.71,8.01-9.06-1.43,4.03-5.2,6.24-8.01,9.06Z"/>
        <path class="cls-3" d="M375.84,186.96c4.71.12-8.83,12.06-9.76,13.24.35-2.02,8.93-13.26,9.76-13.24Z"/>
        <path class="cls-3" d="M328.09,193.93c-.71-.11-1.46,1.81-1.39-.7,1.16-1.15,2.33-2.33,3.48-3.48-.73,1.31-1.66,2.74-2.09,4.18Z"/>
        <path class="cls-3" d="M269.55,200.9h-.7c1.3-1.59,5.58-8.44,7.32-8.36l.7,1.39c-2.63,2.11-4.83,4.66-7.32,6.97Z"/>
        <path class="cls-3" d="M346.56,233.66c10.6-2.48,11.02,12.46,2.79,13.24-7.7.73-9.9-11.58-2.79-13.24Z"/>
        <path class="cls-3" d="M227.39,270.59h59.94c5.39,9.68-1.79,26.58-13.94,22.3-4.28-1.51-2.39-6.93-7.32,1.05,8.45.07,18.61,3.42,21.95-6.62,1.82,1.11-2.3,8.14-2.79,8.36-2.35,1.06-48.38.7-51.57,0-9.96-2.2-8.8-17.88-6.27-25.09ZM273.38,271.99c-.3,5.91-4.68,20.81,4.18,20.21,8.92-.6,10.72-14.97,4.88-18.12-4.54-2.45-6.85,3.76-9.06-2.09ZM234.35,273.38c-8.08,2.08-6.83,19.81,5.58,17.42,9.06-1.75,9.15-21.22-5.58-17.42ZM248.29,273.38c-.17-.05-.85.55-.7,1.39.58,3.17,2.96-.81.7-1.39ZM256.66,273.38c-7.75,1.2-7.39,13.37-1.39,16.73,13.55,7.59,18.38-19.36,1.39-16.73ZM268.51,273.38c-1,1.45,1.45,2.51,2.09,3.48,1-1.45-1.45-2.51-2.09-3.48ZM247.6,288.71c-.41,0-3.46,3.81-6.97,4.18-4.06.43-5.75-2.13-8.71-1.05,5.56,4.37,13.94.64,20.56,1.74-.49-.78-4.53-4.88-4.88-4.88ZM253.87,290.8c.58,3.22,6.06,3.87,8.71,2.44l-8.71-2.44Z"/>
        <path class="cls-3" d="M409.29,270.59h62.73c11.82,38.93-33.79,21.55-55.06,26.48-9.73-5.23-8.37-16.94-7.67-26.48ZM428.11,272.68c-1.3-.21-.63,3.46.7,2.79.93-.47.09-2.66-.7-2.79ZM446.23,272.68l2.79,2.79,1.05-1.05c.05-2.09-2.37-1.83-3.83-1.74ZM414.86,273.38c-4.78,1.6-5.37,22.43,9.06,16.03,6.7-2.97,3.95-20.38-9.06-16.03ZM434.38,273.38c-6.73,2.17-5.35,22.33,9.76,16.03,9.54-3.98,3.02-20.16-9.76-16.03ZM454.94,286.62c-3.63-.42,4.08,6.79,4.53,6.97,2.97,1.2,6.3.43,8.71-1.74-6.63,1.91-9.97,1.21-13.24-5.23,7.36,8.5,18.61,2.07,15.33-8.71-1.87-6.14-24.11-8.58-15.33,8.71ZM450.41,288.71c-.39.04-4.9,4.72-5.58,5.58l12.89-.35c-2.38-.06-5.86-5.38-7.32-5.23ZM428.8,290.11c-.42-.02-3.58,2.73-4.18,2.79-3.46.33-6.7-.81-10.11-.35,5.7,3.87,13.45.15,19.86,2.44.2-1.02-5.21-4.86-5.58-4.88ZM441.35,292.2c-.23,0-3.5,1.15-4.53,1.05,1.82,2.13,4.74.9,6.27-.7-.2-.56-1.13-.34-1.74-.35Z"/>
        <path class="cls-3" d="M275.47,277.56c.36-.26,6.68-.39,7.32,1.05,1.66,3.76-1.3,12.04-6.97,8.36-.52-1.65-1.33-8.71-.35-9.41ZM277.57,283.14c-.81.32.36,3.11,1.39,2.79.82-.33-.41-3.18-1.39-2.79Z"/>
        <path class="cls-3" d="M438.91,285.23l-3.48-2.79c-.69-10.79,16.49-.13,3.48,2.79Z"/>
        <path class="cls-3" d="M462.26,277.56c9.54-.38,2.03,9.91-2.09,7.67-2.04-1.11-1.37-7.08,2.09-7.67Z"/>
        <path class="cls-3" d="M235.75,278.26c9.03-3.21,7.2,9.16,0,6.97-2.99-.91-2.82-5.97,0-6.97Z"/>
        <path class="cls-3" d="M258.05,278.26c7.51-3.02,6.36,8.41,0,6.27-2.22-.75-2.52-5.26,0-6.27ZM258.75,281.74c-.84.3-.32,1.84.7,1.39.84-.37.36-1.78-.7-1.39Z"/>
        <path class="cls-3" d="M417.65,278.26c7.63-2.45,5.53,6.41,1.39,6.97-4.68.63-5.43-5.67-1.39-6.97ZM417.65,281.74c-.51.15-1.6,1.47-.7,2.09,1.06-.71,2.48-2.62.7-2.09Z"/>
        <path class="cls-3" d="M225.99,336.8l66.21.7.35,25.44c-10.29-1.36-47.38,3.23-54.71-.35-.79-.39-2.7-2.73-1.39-3.48,4.24-.87,54.69,1.84,54.71-1.74.02-4.07-54.09.23-58.2-1.05-.99-.55-1.45-2.35-1.05-3.14,1.82-3.52,54.32,1.32,58.2-1.05.48-.29.52-2,.35-2.44-1.07-2.82-53.63-.02-60.29-1.05l-1.74-2.44,2.44-1.74h59.24c.75-.56,1.44-1.48,1.05-2.44-1.23-3.02-57.84.14-65.16-1.05v-4.18Z"/>
        <path class="cls-3" d="M407.9,336.8c3.18-.93,57.38-.75,62.73,0,.95.13,5.08.47,4.53,2.44-1.07,3.82-61.92.2-69.35,2.44-.88-3-.82-4.03,2.09-4.88Z"/>
        <path class="cls-3" d="M406.5,344.47c8.46,1.65,61.3-2.16,64.82,0,.7.43.23,1.76.35,2.44l-62.38,1.74c-1.16.54-1.52,2.96-.7,3.48,3.04,1.93,51-1.34,58.54-.7.91.71,1.24,1.23,1.05,2.44-.69,4.23-58.67-.37-59.94,2.79-.17.43-.12,2.13.35,2.44l55.41,1.05c-1.46,1.51-3.05,3.37-5.23,3.83-13.51,2.89-37.63-2.17-52.27,0v-19.51Z"/>
        <path class="cls-3" d="M390.12,367.47l-.7-1.39c.48.07,1.05-.25,1.39.35.42.92-.52.89-.7,1.05Z"/>
        <path class="cls-3" d="M336.11,372.35c.86-.59.92,2.67,0,2.09-.53-.33-.6-1.68,0-2.09Z"/>
        <path class="cls-3" d="M418.35,388.38l1.05.35-1.05,1.05-.35-.35.35-1.05Z"/>
        <path class="cls-3" d="M266.41,395.35l1.05.35-1.05,1.05-.35-.35.35-1.05Z"/>
        <path class="cls-3" d="M241.32,424.62c3.04,3.61-1.88,8.12-5.58,6.97l5.58-6.97Z"/>
        <path class="cls-3" d="M485.95,428.1c4.47.05,6.34,11.29,7.67,2.79,2.78,3.48,4.99,4.41,9.41,4.53-7.76,2.19-13.86.46-17.08-7.32Z"/>
        <path class="cls-3" d="M220.42,444.13c4.01.5-3.29,6.8-4.18,7.67-1.21-1.66,3.75-7.72,4.18-7.67Z"/>
        <path class="cls-3" d="M199.51,457.38l.35,1.05-1.05.35-.35-.35,1.05-1.05Z"/>
        <path class="cls-3" d="M202.3,463.65c.2.01,2.84,1.46,2.44,2.44-7.96-1.22-7.81,15.06-18.12,8.36,4.36,1.32,16.87-9.06,8.71-8.71-.34-.34,6.55-2.12,6.97-2.09Z"/>
        <path class="cls-3" d="M181.39,467.83l2.44,1.05c-.13.71-4,.69-2.44-1.05Z"/>
        <path class="cls-3" d="M546.59,468.53c1.2-.53,1.47,1.75.7,2.09-1.2.53-1.47-1.75-.7-2.09Z"/>
        <path class="cls-3" d="M554.95,479.68c7.02-1.53,4.76,6.78-2.09,4.18-2.4-.91,1.34-4.02,2.09-4.18Z"/>
        <path class="cls-3" d="M552.16,506.86c2.89-.23,9.41,10.78,10.45,11.15,4.73,1.67,23.61-1.86,26.48-.7.51.2,1.8,2.97,1.74,3.14-.53,1.42-28.36,1.62-30.32,1.05-.94-.27-11.05-11.92-10.8-12.89.33-.45,2.29-1.73,2.44-1.74Z"/>
        <path class="cls-3" d="M242.72,518.01c30.05.67,60.26-1.37,90.26,1.05l-44.95.35-45.3-1.39Z"/>
        <path class="cls-3" d="M394.65,518.01c32.35,2.05,64.89-2.17,97.22,1.05l-49.14,1.05-48.09-2.09Z"/>
        <line class="cls-3" x1="487.58" y1="269.39" x2="487.58" y2="269.28"/>
        <line class="cls-3" x1="487.27" y1="220.77" x2="487.23" y2="218.76"/>
        <path class="cls-3" d="M212.55,324.75c0,.06.01.11.03.17-.01-.08-.03-.16-.05-.24l.02.07Z"/>
        <path class="cls-3" d="M215.98,338.03c-.13-.41-.25-.82-.37-1.23.26.31.41.72.37,1.23Z"/>
        <path class="cls-3" d="M294.86,51.57c-.17.04-.33.08-.49.13-1.23.3-2.46.62-3.7.95,1.23-.34,2.46-.66,3.69-.95.17-.04.33-.08.5-.12Z"/>
        <path class="cls-3" d="M299.01,50.61c-.79.17-1.58.35-2.38.54-.47.11-.96.23-1.44.34.48-.13.96-.24,1.44-.35.79-.18,1.59-.36,2.38-.53Z"/>
        <path class="cls-3" d="M415.08,55.26l-.56-.13c-2.76-.68-5-1.27-6.1-1.73,2.33.61,4.55,1.23,6.66,1.86Z"/>
        <path class="cls-3" d="M287.03,53.65c-.81.23-1.61.47-2.41.72-.77.24-1.58.47-2.43.72,1.12-.35,2.24-.68,3.35-1.01.5-.15,1-.29,1.5-.43Z"/>
        <path class="cls-3" d="M315.08,47.99c-2.79.34-5.56.72-8.34,1.14,2.82-.47,5.6-.85,8.34-1.14Z"/>
        <line class="cls-3" x1="198.46" y1="205.43" x2="198.45" y2="206.06"/>
        <line class="cls-3" x1="198.6" y1="199.84" x2="198.58" y2="200.7"/>
        <path class="cls-3" d="M486.73,322.21c-.2.84-.39,1.67-.59,2.49"/>
        <path class="cls-3" d="M469.35,365.18c-.04.08-.09.15-.14.22,0,0,0,.01-.01.02"/>
      </g>
    </g>
  </g>
</svg>